{
	"asset":{
		"copyright":"@luishrolins",
		"generator":"Khronos glTF Blender I/O v3.6.28",
		"version":"2.0"
	},
	"extensionsUsed":[
		"KHR_materials_specular",
		"KHR_materials_ior",
		"KHR_materials_clearcoat"
	],
	"scene":0,
	"scenes":[
		{
			"name":"Scene",
			"nodes":[
				0,
				1,
				2,
				3,
				4
			]
		}
	],
	"nodes":[
		{
			"mesh":0,
			"name":"Assento",
			"translation":[
				0,
				0.5892187356948853,
				-0.009006883017718792
			]
		},
		{
			"mesh":1,
			"name":"Pernas",
			"translation":[
				0,
				0.288042277097702,
				0
			]
		},
		{
			"mesh":2,
			"name":"Pezinhos",
			"translation":[
				0,
				0.0040047019720077515,
				0
			]
		},
		{
			"mesh":3,
			"name":"NurbsPath.006",
			"translation":[
				0,
				0.4058082699775696,
				0
			]
		},
		{
			"mesh":4,
			"name":"Plano de Fundo",
			"scale":[
				2.008777618408203,
				2.008777618408203,
				2.008777618408203
			],
			"translation":[
				0.25041210651397705,
				-0.0007653702050447464,
				-2.6919307708740234
			]
		}
	],
	"materials":[
		{
			"doubleSided":true,
			"extensions":{
				"KHR_materials_specular":{
					"specularColorFactor":[
						0.8892591054155242,
						0.8892591054155242,
						0.8892591054155242
					]
				},
				"KHR_materials_ior":{
					"ior":1.4500000476837158
				}
			},
			"name":"Assento",
			"pbrMetallicRoughness":{
				"baseColorFactor":[
					0.9294570088386536,
					0.6882659792900085,
					0,
					1
				],
				"metallicFactor":0,
				"roughnessFactor":0.10000000149011612
			}
		},
		{
			"doubleSided":true,
			"name":"Pernas",
			"normalTexture":{
				"index":0
			},
			"pbrMetallicRoughness":{
				"baseColorTexture":{
					"index":1
				},
				"metallicFactor":0,
				"metallicRoughnessTexture":{
					"index":2
				}
			}
		},
		{
			"doubleSided":true,
			"extensions":{
				"KHR_materials_specular":{
					"specularColorFactor":[
						0.280251369853321,
						0.280251369853321,
						0.280251369853321
					]
				},
				"KHR_materials_ior":{
					"ior":1.4500000476837158
				}
			},
			"name":"Pezinhos",
			"pbrMetallicRoughness":{
				"baseColorFactor":[
					0,
					0,
					0,
					1
				],
				"metallicFactor":0,
				"roughnessFactor":0.531818151473999
			}
		},
		{
			"doubleSided":true,
			"extensions":{
				"KHR_materials_clearcoat":{
					"clearcoatFactor":1,
					"clearcoatRoughnessFactor":0.029999999329447746
				}
			},
			"name":"Ferrinhos",
			"pbrMetallicRoughness":{
				"baseColorFactor":[
					0,
					0,
					0,
					1
				],
				"roughnessFactor":0.25
			}
		}
	],
	"meshes":[
		{
			"name":"Plane",
			"primitives":[
				{
					"attributes":{
						"POSITION":0,
						"NORMAL":1,
						"TEXCOORD_0":2
					},
					"indices":3,
					"material":0
				}
			]
		},
		{
			"name":"Circle",
			"primitives":[
				{
					"attributes":{
						"POSITION":4,
						"NORMAL":5,
						"TEXCOORD_0":6
					},
					"indices":7,
					"material":1
				}
			]
		},
		{
			"name":"Circle.002",
			"primitives":[
				{
					"attributes":{
						"POSITION":8,
						"NORMAL":9,
						"TEXCOORD_0":10
					},
					"indices":11,
					"material":2
				}
			]
		},
		{
			"name":"NurbsPath.009",
			"primitives":[
				{
					"attributes":{
						"POSITION":12,
						"NORMAL":13,
						"TEXCOORD_0":14
					},
					"indices":15,
					"material":3
				}
			]
		},
		{
			"name":"Plane.002",
			"primitives":[
				{
					"attributes":{
						"POSITION":16,
						"NORMAL":17,
						"TEXCOORD_0":18
					},
					"indices":19
				}
			]
		}
	],
	"textures":[
		{
			"sampler":0,
			"source":0
		},
		{
			"sampler":0,
			"source":1
		},
		{
			"sampler":0,
			"source":2
		}
	],
	"images":[
		{
			"mimeType":"image/jpeg",
			"name":"plywood_nor_4k",
			"uri":"Textures/plywood_nor_4k.jpg"
		},
		{
			"mimeType":"image/jpeg",
			"name":"plywood_diff_4k",
			"uri":"Textures/plywood_diff_4k.jpg"
		},
		{
			"mimeType":"image/png",
			"name":"plywood_rough_4k",
			"uri":"Textures/plywood_rough_4k.png"
		}
	],
	"accessors":[
		{
			"bufferView":0,
			"componentType":5126,
			"count":20810,
			"max":[
				0.4097864329814911,
				0.7322049140930176,
				0.4055205285549164
			],
			"min":[
				-0.4097863733768463,
				-0.04291844740509987,
				-0.5043801069259644
			],
			"type":"VEC3"
		},
		{
			"bufferView":1,
			"componentType":5126,
			"count":20810,
			"type":"VEC3"
		},
		{
			"bufferView":2,
			"componentType":5126,
			"count":20810,
			"type":"VEC2"
		},
		{
			"bufferView":3,
			"componentType":5123,
			"count":123648,
			"type":"SCALAR"
		},
		{
			"bufferView":4,
			"componentType":5126,
			"count":18436,
			"max":[
				0.35872551798820496,
				0.28618788719177246,
				0.3023349940776825
			],
			"min":[
				-0.3587253987789154,
				-0.2818720042705536,
				-0.3023349344730377
			],
			"type":"VEC3"
		},
		{
			"bufferView":5,
			"componentType":5126,
			"count":18436,
			"type":"VEC3"
		},
		{
			"bufferView":6,
			"componentType":5126,
			"count":18436,
			"type":"VEC2"
		},
		{
			"bufferView":7,
			"componentType":5123,
			"count":104424,
			"type":"SCALAR"
		},
		{
			"bufferView":8,
			"componentType":5126,
			"count":31240,
			"max":[
				0.3532460927963257,
				0.004822030663490295,
				0.29692086577415466
			],
			"min":[
				-0.3532470464706421,
				-0.0057106465101242065,
				-0.29692044854164124
			],
			"type":"VEC3"
		},
		{
			"bufferView":9,
			"componentType":5126,
			"count":31240,
			"type":"VEC3"
		},
		{
			"bufferView":10,
			"componentType":5126,
			"count":31240,
			"type":"VEC2"
		},
		{
			"bufferView":11,
			"componentType":5123,
			"count":175104,
			"type":"SCALAR"
		},
		{
			"bufferView":12,
			"componentType":5126,
			"count":1248,
			"max":[
				0.24737319350242615,
				0.07775763422250748,
				0.19627846777439117
			],
			"min":[
				-0.24737802147865295,
				-0.12104213982820511,
				-0.1963944286108017
			],
			"type":"VEC3"
		},
		{
			"bufferView":13,
			"componentType":5126,
			"count":1248,
			"type":"VEC3"
		},
		{
			"bufferView":14,
			"componentType":5126,
			"count":1248,
			"type":"VEC2"
		},
		{
			"bufferView":15,
			"componentType":5123,
			"count":6336,
			"type":"SCALAR"
		},
		{
			"bufferView":16,
			"componentType":5126,
			"count":4,
			"max":[
				3.0014679431915283,
				0,
				3.504427909851074
			],
			"min":[
				-3.0014679431915283,
				0,
				-0.606884777545929
			],
			"type":"VEC3"
		},
		{
			"bufferView":17,
			"componentType":5126,
			"count":4,
			"type":"VEC3"
		},
		{
			"bufferView":18,
			"componentType":5126,
			"count":4,
			"type":"VEC2"
		},
		{
			"bufferView":19,
			"componentType":5123,
			"count":6,
			"type":"SCALAR"
		}
	],
	"bufferViews":[
		{
			"buffer":0,
			"byteLength":249720,
			"byteOffset":0,
			"target":34962
		},
		{
			"buffer":0,
			"byteLength":249720,
			"byteOffset":249720,
			"target":34962
		},
		{
			"buffer":0,
			"byteLength":166480,
			"byteOffset":499440,
			"target":34962
		},
		{
			"buffer":0,
			"byteLength":247296,
			"byteOffset":665920,
			"target":34963
		},
		{
			"buffer":0,
			"byteLength":221232,
			"byteOffset":913216,
			"target":34962
		},
		{
			"buffer":0,
			"byteLength":221232,
			"byteOffset":1134448,
			"target":34962
		},
		{
			"buffer":0,
			"byteLength":147488,
			"byteOffset":1355680,
			"target":34962
		},
		{
			"buffer":0,
			"byteLength":208848,
			"byteOffset":1503168,
			"target":34963
		},
		{
			"buffer":0,
			"byteLength":374880,
			"byteOffset":1712016,
			"target":34962
		},
		{
			"buffer":0,
			"byteLength":374880,
			"byteOffset":2086896,
			"target":34962
		},
		{
			"buffer":0,
			"byteLength":249920,
			"byteOffset":2461776,
			"target":34962
		},
		{
			"buffer":0,
			"byteLength":350208,
			"byteOffset":2711696,
			"target":34963
		},
		{
			"buffer":0,
			"byteLength":14976,
			"byteOffset":3061904,
			"target":34962
		},
		{
			"buffer":0,
			"byteLength":14976,
			"byteOffset":3076880,
			"target":34962
		},
		{
			"buffer":0,
			"byteLength":9984,
			"byteOffset":3091856,
			"target":34962
		},
		{
			"buffer":0,
			"byteLength":12672,
			"byteOffset":3101840,
			"target":34963
		},
		{
			"buffer":0,
			"byteLength":48,
			"byteOffset":3114512,
			"target":34962
		},
		{
			"buffer":0,
			"byteLength":48,
			"byteOffset":3114560,
			"target":34962
		},
		{
			"buffer":0,
			"byteLength":32,
			"byteOffset":3114608,
			"target":34962
		},
		{
			"buffer":0,
			"byteLength":12,
			"byteOffset":3114640,
			"target":34963
		}
	],
	"samplers":[
		{
			"magFilter":9729,
			"minFilter":9987
		}
	],
	"buffers":[
		{
			"byteLength":3114652,
			"uri":"Cadeira%20Eifel.bin"
		}
	]
}
